<?xml version="1.0" encoding="UTF-8" standalone="no"?>
<!-- Created with Inkscape (http://www.inkscape.org/) -->

<svg
   xmlns:dc="http://purl.org/dc/elements/1.1/"
   xmlns:cc="http://creativecommons.org/ns#"
   xmlns:rdf="http://www.w3.org/1999/02/22-rdf-syntax-ns#"
   xmlns:svg="http://www.w3.org/2000/svg"
   xmlns="http://www.w3.org/2000/svg"
   xmlns:sodipodi="http://sodipodi.sourceforge.net/DTD/sodipodi-0.dtd"
   xmlns:inkscape="http://www.inkscape.org/namespaces/inkscape"
   width="32"
   height="32"
   viewBox="0 0 8.4666667 8.4666666"
   version="1.1"
   id="svg8"
   inkscape:version="0.92.1 r15371"
   sodipodi:docname="2geom-shape.svg"
   inkscape:export-filename="/home/tweenkpl/src/lib2geom/doc/2geom-shape.png"
   inkscape:export-xdpi="768.00006"
   inkscape:export-ydpi="768.00006">
  <defs
     id="defs2" />
  <sodipodi:namedview
     id="base"
     pagecolor="#ffffff"
     bordercolor="#666666"
     borderopacity="1.0"
     inkscape:pageopacity="0.0"
     inkscape:pageshadow="2"
     inkscape:zoom="31.678384"
     inkscape:cx="6.0429172"
     inkscape:cy="19.978647"
     inkscape:document-units="mm"
     inkscape:current-layer="layer1"
     showgrid="true"
     inkscape:object-paths="true"
     inkscape:snap-global="true"
     fit-margin-top="0"
     fit-margin-left="0"
     fit-margin-right="0"
     fit-margin-bottom="0"
     units="px"
     inkscape:window-width="2888"
     inkscape:window-height="1936"
     inkscape:window-x="56"
     inkscape:window-y="32"
     inkscape:window-maximized="1"
     inkscape:snap-grids="true"
     inkscape:snap-smooth-nodes="true">
    <inkscape:grid
       type="xygrid"
       id="grid5123" />
  </sodipodi:namedview>
  <metadata
     id="metadata5">
    <rdf:RDF>
      <cc:Work
         rdf:about="">
        <dc:format>image/svg+xml</dc:format>
        <dc:type
           rdf:resource="http://purl.org/dc/dcmitype/StillImage" />
        <dc:title />
      </cc:Work>
    </rdf:RDF>
  </metadata>
  <g
     inkscape:label="Layer 1"
     inkscape:groupmode="layer"
     id="layer1"
     transform="translate(-52.144677,-55.594363)">
    <path
       sodipodi:nodetypes="csssssccssscsccs"
       inkscape:connector-curvature="0"
       d="m 55.055094,60.88603 2.116666,-2.116667 c 0.293025,-0.293024 0.54375,-0.66877 0.53613,-1.181017 -0.01175,-0.788317 -0.284487,-0.935056 -1.065296,-0.93565 -1.852083,-0.0014 -2.654076,1.587522 -2.645834,3.175 0.0089,1.715681 1.045184,3.175 2.645834,3.175 1.5875,0 2.38125,-0.529166 2.38125,-2.116666 z m 1.5875,3.175 c -2.645834,0 -3.704167,-2.116667 -3.704167,-4.233334 0,-2.38125 1.322917,-4.231397 3.704167,-4.233333 1.06309,-8.64e-4 1.769761,0.29129 2.116666,0.529167 0.02288,1.226853 -0.198274,2.050357 -1.5875,3.439583 l -0.79375,0.79375 h 3.704167 c 0,2.116667 -0.529167,3.704167 -3.439583,3.704167 z"
       style="font-style:normal;font-variant:normal;font-weight:normal;font-stretch:normal;font-size:medium;line-height:1.25;font-family:Roboto;-inkscape-font-specification:Roboto;letter-spacing:0px;word-spacing:0px;fill:#2e3436;fill-opacity:1;stroke:none;stroke-width:0.27560481;stroke-miterlimit:4;stroke-dasharray:none"
       id="path5079" />
    <path
       style="fill:#4e9a06;stroke:none;stroke-width:0.99999994px;stroke-linecap:butt;stroke-linejoin:miter;stroke-opacity:1;fill-opacity:1"
       d="M 17 0 C 15.160369 0.0014956541 13.496845 0.30887205 12 0.8515625 L 12 5.3164062 C 13.365989 4.4911609 15.018578 3.9985022 17 4 C 19.951089 4.002245 20.980981 4.5576435 21.025391 7.5371094 C 21.054191 9.473161 20.107496 10.892508 19 12 L 11 20 L 26 20 L 29.945312 20 C 29.978934 19.347698 30 18.684048 30 18 L 16 18 L 19 15 C 24.250618 9.749382 25.086476 6.6369247 25 2 C 23.688863 1.1009373 21.017978 -0.0032655118 17 0 z "
       transform="matrix(0.26458333,0,0,0.26458333,52.144677,55.594363)"
       id="path5224" />
  </g>
</svg>
